<?xml version="1.0" encoding="UTF-8"?>
<svg width="20px" height="20px" viewBox="0 0 20 20" version="1.1" xmlns="http://www.w3.org/2000/svg" xmlns:xlink="http://www.w3.org/1999/xlink">
    <title>邮件</title>
    <g id="详情页" stroke="none" stroke-width="1" fill="none" fill-rule="evenodd">
        <g id="D4-客户-动态" transform="translate(-100.000000, -611.000000)">
            <g id="编组-14" transform="translate(100.000000, 610.000000)">
                <g id="邮件" transform="translate(0.000000, 1.000000)">
                    <rect id="矩形" stroke="#FAD637" fill="#FEFAEB" x="0.5" y="0.5" width="19" height="19" rx="9.5"></rect>
                    <g id="邮箱" transform="translate(4.814815, 4.814815)" fill="#FAD637" fill-rule="nonzero">
                        <path d="M3.03131458,4.19753086 L7.70942616,4.19753086 C7.95143856,4.19753086 8.14814815,4.41894793 8.14814815,4.69135802 C8.14814815,4.96376812 7.95143856,5.18518519 7.70942616,5.18518519 L3.03131458,5.18518519 C2.78930218,5.18518519 2.59259259,4.96376812 2.59259259,4.69135802 C2.59259259,4.41894793 2.78930218,4.19753086 3.03131458,4.19753086 Z M3.03131458,2.22222222 L7.70942616,2.22222222 C7.95143856,2.22222222 8.14814815,2.44229737 8.14814815,2.71604938 C8.14814815,2.98845947 7.95143856,3.20987654 7.70942616,3.20987654 L3.03131458,3.20987654 C2.78930218,3.20987654 2.59259259,2.9898014 2.59259259,2.71604938 C2.59259259,2.44363929 2.78930218,2.22222222 3.03131458,2.22222222 Z" id="形状"></path>
                        <path d="M5.20717593,7.05261896 L0,4.54392904 L0,8.88888889 C0,9.70634064 0.640046296,10.3703704 1.43055556,10.3703704 L8.93981481,10.3703704 C9.73032407,10.3703704 10.3703704,9.70634064 10.3703704,8.88888889 L10.3703704,4.44444444 L10.2789352,4.47560829 L5.20717593,7.05261896 L5.20717593,7.05261896 Z" id="路径"></path>
                        <path d="M1.47052159,1.63846037 C1.47052159,1.33654451 1.71700356,1.09190913 2.02119837,1.09190913 L8.349172,1.09190913 C8.65336681,1.09190913 8.89984878,1.33654451 8.89984878,1.63846037 L8.89984878,4.01440691 L10,3.50484931 L10,1.09190913 C10,0.489270759 9.50703607,0 8.89984878,0 L1.47052159,0 C0.862131953,0 0.37037037,0.489270759 0.37037037,1.09190913 L0.37037037,3.58838335 L1.47052159,4.07407407 L1.47052159,1.63846037 Z" id="路径" fill-opacity="0.5"></path>
                    </g>
                </g>
            </g>
        </g>
    </g>
</svg>